# xmcd
#
# Track frame offsets:
#	150
#	12357
#	21259
#	27030
#	50137
#	74810
#	97616
#	120570
#	134670
#	155613
#	175833
#	187829
#
# Disc length: 2806 seconds
#
# Revision: 0
# Processed by: cddbd v1.5.1PL0 Copyright (c) Steve Scherf et al.
# Submitted via: EasyCDDAExtractor 8.1.0.1
#
DISCID=9e0af40c
DTITLE=Bruce Springsteen - The Essential CD3
DYEAR=1900
DGENRE=
TTITLE0=From Small Things (Big Things One Day Come)
TTITLE1=The Big Payback
TTITLE2=Held Up Without A Gun (Live)
TTITLE3=Trapped (Live)
TTITLE4=None But The Brave
TTITLE5=Missing
TTITLE6=Lift Me Up
TTITLE7=Viva Las Vegas
TTITLE8=County Fair
TTITLE9=Code Of Silence (Live)
TTITLE10=Dead Man Walkin'
TTITLE11=Countin On A Miracle (Acoustic)
EXTD=
EXTT0=
EXTT1=
EXTT2=
EXTT3=
EXTT4=
EXTT5=
EXTT6=
EXTT7=
EXTT8=
EXTT9=
EXTT10=
EXTT11=
PLAYORDER=
